<?xml version="1.0" standalone="no"?>
<!DOCTYPE svg PUBLIC "-//W3C//DTD SVG 20010904//EN"
 "http://www.w3.org/TR/2001/REC-SVG-20010904/DTD/svg10.dtd">
<svg version="1.0" xmlns="http://www.w3.org/2000/svg"
 width="1754.000000pt" height="1754.000000pt" viewBox="0 0 1754.000000 1754.000000"
 preserveAspectRatio="xMidYMid meet">
<metadata>
Created by potrace 1.11, written by Peter Selinger 2001-2013
</metadata>
<g transform="translate(0.000000,1754.000000) scale(0.100000,-0.100000)"
fill="#000000" stroke="none">
<path d="M5370 17077 c-19 -5 -71 -21 -115 -35 -44 -14 -84 -27 -90 -28 -19
-3 -298 -125 -359 -156 -33 -18 -63 -32 -66 -33 -27 -4 -387 -220 -555 -334
-262 -177 -649 -483 -850 -672 -27 -26 -66 -61 -85 -79 -205 -187 -521 -521
-719 -760 -34 -41 -70 -84 -79 -95 -32 -38 -90 -120 -109 -155 -18 -32 -27
-58 -39 -115 -7 -33 -7 -107 1 -155 7 -47 54 -150 79 -176 9 -8 21 -23 28 -33
21 -29 112 -90 158 -106 158 -56 322 -23 440 87 14 12 50 54 80 93 418 533
1037 1109 1595 1482 278 186 648 379 820 427 6 1 30 8 55 15 163 45 285 170
320 327 11 48 11 159 1 179 -3 6 -6 16 -8 24 -1 8 -15 41 -32 75 -50 101 -140
178 -249 213 -56 18 -173 23 -222 10z"/>
<path d="M11508 16994 c-2 -1 -17 -5 -33 -8 -55 -10 -155 -69 -201 -118 -25
-27 -60 -79 -77 -116 -29 -61 -32 -76 -32 -162 0 -123 27 -196 104 -281 47
-53 70 -68 190 -125 75 -36 185 -96 244 -132 59 -37 122 -76 140 -87 37 -22
386 -266 414 -289 10 -8 65 -52 123 -98 58 -45 107 -85 110 -88 3 -3 32 -27
65 -55 33 -27 71 -59 85 -71 14 -13 50 -44 80 -71 30 -26 127 -120 215 -209
88 -89 178 -173 200 -187 186 -122 437 -69 564 118 50 72 66 131 66 236 0 90
-2 99 -37 170 -31 62 -62 99 -185 224 -148 150 -316 308 -384 362 -19 15 -42
35 -51 43 -8 8 -34 31 -58 50 -24 19 -48 40 -54 46 -25 23 -365 282 -421 319
-33 22 -62 43 -65 46 -9 11 -243 165 -355 235 -162 100 -364 201 -470 235 -35
11 -170 21 -177 13z"/>
<path d="M8447 16654 c-1 -1 -58 -5 -127 -9 -69 -3 -145 -7 -170 -10 -25 -2
-85 -6 -135 -10 -49 -3 -110 -8 -135 -11 -76 -7 -143 -15 -180 -19 -19 -2 -64
-7 -100 -10 -36 -4 -78 -9 -95 -11 -16 -3 -46 -7 -65 -9 -63 -7 -215 -33 -290
-50 -14 -3 -37 -7 -52 -10 -144 -27 -459 -126 -574 -180 -118 -57 -211 -165
-248 -289 -18 -58 -13 -201 8 -241 9 -16 16 -35 16 -41 0 -15 59 -94 95 -127
74 -68 176 -108 275 -108 89 0 103 4 233 63 48 22 93 41 100 42 7 2 19 6 27 9
47 19 361 89 458 102 15 2 27 4 27 5 0 2 37 7 110 14 33 3 74 8 90 10 41 5
169 18 300 31 102 9 282 21 461 30 135 6 234 52 315 143 166 189 127 475 -86
619 -44 30 -142 62 -203 66 -29 2 -53 2 -55 1z"/>
<path d="M9765 16212 c-131 -24 -238 -105 -299 -225 -102 -200 -27 -435 173
-548 38 -21 85 -36 128 -41 5 0 19 -5 33 -10 14 -6 68 -12 120 -14 52 -2 111
-6 130 -10 19 -4 44 -8 55 -10 11 -1 61 -10 110 -19 153 -28 274 -4 374 75
224 177 204 518 -39 674 -37 24 -162 76 -195 81 -11 2 -38 7 -60 11 -22 3 -56
8 -75 9 -67 5 -173 16 -209 22 -44 6 -219 10 -246 5z"/>
<path d="M5395 15833 c-83 -10 -240 -85 -403 -189 -45 -30 -85 -54 -88 -54 -8
0 -98 -73 -102 -82 -2 -5 -8 -8 -13 -8 -16 0 -121 -71 -263 -178 -205 -155
-248 -192 -507 -442 -240 -233 -285 -279 -352 -359 -40 -47 -74 -88 -77 -91
-3 -3 -21 -25 -40 -50 -19 -25 -40 -51 -47 -58 -30 -31 -175 -226 -230 -307
-33 -49 -104 -164 -158 -255 -54 -91 -121 -199 -150 -240 -109 -158 -183 -299
-276 -522 -28 -68 -57 -137 -64 -153 -81 -179 -89 -333 -25 -468 52 -111 180
-221 284 -243 115 -25 212 -16 310 31 110 52 217 191 232 303 8 59 129 348
185 441 20 35 157 244 167 256 4 6 23 37 42 70 113 201 203 339 317 481 48 61
115 144 147 185 33 41 107 121 165 178 269 265 334 323 506 456 43 33 83 65
89 70 9 8 59 48 146 118 62 50 335 225 414 266 105 55 150 91 202 163 73 98
96 243 61 378 -27 108 -170 257 -265 276 -18 4 -32 10 -32 14 0 3 -6 7 -12 7
-7 0 -40 3 -73 5 -33 2 -73 3 -90 1z"/>
<path d="M8047 15463 c-2 -2 -34 -5 -70 -8 -62 -4 -201 -20 -257 -31 -14 -2
-43 -7 -65 -9 -86 -11 -344 -65 -428 -90 -30 -9 -63 -17 -73 -20 -99 -20 -499
-159 -619 -215 -22 -10 -87 -40 -145 -65 -116 -53 -340 -168 -382 -196 -14
-11 -29 -19 -32 -19 -8 0 -213 -127 -269 -166 -26 -19 -50 -34 -53 -34 -4 0
-28 -16 -89 -63 -5 -4 -62 -46 -125 -93 -118 -89 -207 -160 -225 -178 -5 -6
-35 -32 -65 -57 -140 -118 -375 -352 -500 -498 -30 -35 -60 -69 -65 -75 -6 -6
-41 -49 -79 -96 -37 -47 -75 -94 -84 -105 -44 -52 -210 -289 -276 -394 -243
-384 -428 -770 -571 -1192 -30 -92 -58 -175 -60 -185 -2 -11 -18 -71 -35 -134
-17 -63 -33 -122 -35 -130 -11 -46 -65 -304 -70 -337 -3 -21 -7 -49 -10 -61
-8 -45 -35 -249 -41 -317 -3 -38 -8 -88 -11 -110 -2 -22 -6 -169 -8 -327 -3
-238 -2 -296 11 -340 35 -120 111 -211 222 -266 74 -36 79 -37 181 -36 91 1
114 4 161 26 106 49 192 145 228 254 17 51 20 88 20 275 1 255 8 367 38 604
20 155 74 415 123 590 17 61 33 117 35 125 4 13 43 127 93 270 56 160 205 473
319 670 43 74 82 140 86 145 4 6 36 53 70 105 164 251 375 507 599 727 132
128 209 199 287 261 22 19 51 42 64 53 31 26 32 26 123 94 183 138 391 267
610 380 120 63 186 93 370 170 111 47 346 123 491 160 128 32 123 31 279 60
145 26 183 32 360 50 110 11 194 48 265 117 206 198 150 548 -108 666 -58 27
-175 56 -185 45z"/>
<path d="M11395 14586 c-84 -30 -114 -47 -169 -102 -97 -98 -138 -235 -113
-377 21 -116 116 -239 270 -348 111 -80 365 -319 518 -490 286 -317 524 -671
889 -1324 219 -390 538 -897 706 -1121 57 -76 252 -311 300 -361 16 -16 87
-91 157 -166 174 -184 241 -225 381 -231 188 -9 349 101 410 281 43 126 22
260 -58 375 -6 9 -72 80 -146 159 -74 78 -142 150 -150 158 -8 9 -64 75 -123
146 -112 134 -225 296 -411 590 -60 94 -118 186 -131 205 -12 19 -40 64 -60
100 -21 36 -46 79 -55 95 -10 17 -77 136 -150 265 -162 287 -272 474 -282 478
-4 2 -8 8 -8 13 0 11 -87 149 -184 289 -113 164 -120 174 -126 180 -3 3 -25
32 -50 65 -183 245 -374 457 -627 695 -142 134 -165 154 -244 215 -41 31 -100
81 -132 111 -117 109 -276 148 -412 100z"/>
<path d="M1149 14456 c-120 -35 -213 -114 -272 -232 -126 -252 -119 -434 23
-583 161 -170 421 -174 589 -10 86 85 171 283 177 412 7 165 -87 316 -241 389
-76 35 -201 46 -276 24z"/>
<path d="M8757 14274 c-1 -1 -58 -5 -127 -8 -122 -6 -145 -8 -260 -22 -87 -10
-101 -12 -170 -24 -91 -15 -99 -17 -155 -30 -27 -6 -61 -14 -75 -16 -39 -7
-139 -34 -210 -57 -301 -94 -394 -461 -173 -685 108 -109 262 -147 419 -102
70 20 278 66 343 76 20 3 50 8 66 11 33 5 48 7 180 18 163 15 493 9 605 -9 14
-3 50 -7 80 -10 254 -29 611 -141 890 -280 324 -162 636 -406 850 -666 93
-112 134 -146 230 -188 117 -51 278 -29 390 53 160 118 213 344 121 522 -68
134 -429 499 -666 674 -33 24 -62 47 -65 50 -7 9 -229 153 -270 175 -19 10
-37 21 -40 24 -8 8 -36 23 -166 88 -107 54 -142 70 -249 117 -130 57 -330 123
-509 170 -141 36 -153 39 -251 55 -33 5 -71 12 -85 14 -62 11 -119 19 -229 31
-88 10 -467 25 -474 19z"/>
<path d="M13492 14099 c-69 -9 -104 -23 -178 -72 -66 -43 -132 -130 -154 -202
-7 -22 -16 -49 -20 -60 -12 -34 -4 -139 16 -200 10 -32 37 -86 61 -119 68 -98
285 -424 341 -512 49 -79 269 -462 387 -674 76 -135 128 -191 222 -236 64 -31
86 -36 161 -39 103 -3 180 20 260 79 145 106 205 306 142 470 -24 63 -261 487
-413 741 -80 133 -300 471 -388 595 -93 131 -159 185 -264 215 -69 21 -102 23
-173 14z"/>
<path d="M6598 13670 c-79 -14 -272 -129 -463 -274 -144 -109 -329 -283 -446
-420 -19 -22 -45 -51 -58 -65 -39 -43 -193 -251 -252 -341 -203 -309 -370
-656 -493 -1020 -46 -137 -106 -347 -121 -418 -2 -9 -10 -47 -19 -83 -29 -124
-59 -292 -71 -389 -1 -14 -5 -43 -8 -65 -43 -297 -53 -782 -22 -1075 2 -25 7
-72 10 -105 11 -116 45 -326 76 -470 5 -27 13 -61 15 -75 7 -35 41 -161 65
-244 12 -38 22 -76 24 -85 9 -42 89 -251 113 -295 37 -68 127 -146 204 -176
52 -21 80 -25 158 -25 86 0 102 3 162 32 212 100 296 320 210 548 -29 76 -81
236 -98 300 -4 17 -8 32 -9 35 -5 19 -45 200 -49 220 -3 14 -9 48 -15 77 -6
29 -15 92 -21 140 -6 48 -13 99 -15 113 -19 117 -25 543 -11 740 13 177 17
218 41 363 2 12 6 38 9 57 3 19 8 45 10 56 2 12 7 37 10 55 22 140 130 510
196 674 113 281 259 554 404 755 120 167 302 365 436 475 25 20 54 45 66 54
35 30 147 105 221 149 93 55 159 122 195 198 36 77 39 92 39 184 0 174 -109
327 -276 387 -46 16 -162 23 -217 13z"/>
<path d="M8787 12934 c-1 -1 -49 -5 -107 -8 -58 -3 -121 -9 -140 -12 -37 -5
-195 -31 -245 -40 -48 -8 -183 -44 -270 -71 -229 -71 -418 -155 -635 -281 -86
-50 -237 -148 -250 -162 -3 -4 -23 -19 -45 -35 -356 -260 -682 -658 -884
-1080 -111 -232 -214 -558 -237 -753 -3 -25 -7 -49 -9 -52 -18 -29 -26 -446
-12 -605 13 -148 24 -193 69 -272 98 -176 334 -250 520 -165 169 77 260 239
244 430 -4 42 -9 79 -12 83 -6 11 -5 261 1 329 65 659 484 1274 1091 1602 170
92 423 189 550 211 16 3 65 12 109 21 44 9 112 19 150 22 134 13 397 7 487
-12 13 -2 39 -7 58 -10 284 -45 628 -216 845 -420 121 -114 233 -258 303 -385
46 -87 63 -111 105 -151 70 -68 150 -104 251 -113 290 -28 519 260 426 536
-54 159 -255 450 -442 640 -81 82 -196 184 -252 224 -16 11 -34 25 -41 32 -37
35 -238 157 -360 219 -142 71 -276 125 -427 170 -76 22 -353 81 -388 82 -8 0
-35 3 -60 6 -95 12 -385 27 -393 20z"/>
<path d="M15420 12333 c-142 -36 -267 -168 -296 -313 -13 -63 -6 -164 15 -221
18 -46 121 -223 140 -239 3 -3 24 -27 46 -55 67 -83 128 -141 174 -164 226
-116 480 -26 582 205 30 67 37 202 15 267 -9 27 -24 63 -33 80 -21 43 -208
299 -241 333 -104 104 -257 145 -402 107z"/>
<path d="M11909 11999 c-7 -4 -16 -6 -20 -4 -11 7 -101 -26 -144 -53 -63 -39
-125 -111 -159 -182 -25 -54 -30 -79 -33 -151 -3 -102 10 -150 68 -256 42 -78
135 -241 170 -298 10 -16 26 -43 35 -60 76 -134 354 -546 508 -750 59 -79 300
-380 321 -401 6 -6 31 -35 56 -64 24 -29 58 -67 74 -85 270 -292 433 -455 615
-614 35 -31 74 -65 86 -76 12 -11 30 -27 40 -35 11 -8 64 -52 119 -96 187
-151 408 -305 615 -428 80 -48 377 -199 445 -227 193 -79 237 -92 319 -92 87
-1 108 4 182 39 286 135 316 536 54 710 -50 33 -60 38 -180 84 -169 66 -410
196 -600 324 -41 27 -79 54 -85 58 -5 5 -44 33 -85 64 -323 237 -692 585 -990
934 -12 14 -31 36 -43 50 -12 14 -49 59 -82 100 -33 41 -66 81 -73 89 -26 27
-269 356 -344 466 -61 89 -149 226 -245 381 -10 16 -88 152 -218 379 -53 93
-172 176 -273 190 -74 11 -120 12 -133 4z"/>
<path d="M8857 11634 c-1 -1 -45 -4 -98 -8 -53 -3 -103 -8 -110 -10 -8 -3 -30
-7 -49 -10 -106 -15 -346 -98 -460 -159 -299 -158 -524 -370 -680 -637 -113
-195 -213 -447 -234 -595 -4 -23 -9 -52 -11 -65 -19 -95 -19 -358 0 -450 3
-14 8 -41 11 -60 3 -19 15 -66 26 -105 10 -38 21 -78 23 -88 9 -42 60 -176 88
-232 46 -92 83 -142 140 -184 270 -200 649 -24 662 307 3 86 -4 119 -51 225
-20 42 -37 85 -39 95 -2 9 -14 53 -26 97 -37 137 -25 301 31 446 56 143 142
283 219 355 99 93 275 198 346 205 6 1 18 5 28 11 30 16 166 36 226 33 132 -6
228 -54 356 -179 153 -149 228 -260 373 -551 75 -149 99 -203 172 -387 108
-269 214 -475 383 -743 53 -82 130 -206 173 -275 228 -366 325 -502 480 -671
44 -47 108 -118 144 -159 35 -41 87 -98 115 -126 147 -146 377 -156 547 -22
88 69 149 198 149 314 0 153 -41 221 -309 512 -47 52 -99 108 -114 125 -33 37
-186 264 -280 414 -34 56 -119 191 -188 300 -147 234 -256 443 -335 643 -83
209 -91 227 -187 421 -193 389 -307 559 -518 769 -138 138 -192 182 -310 256
-110 68 -335 154 -445 169 -63 9 -243 23 -248 19z"/>
<path d="M2335 11049 c-83 -22 -102 -32 -160 -76 -65 -50 -121 -131 -145 -211
-24 -77 -33 -248 -33 -617 0 -226 4 -342 18 -633 6 -125 22 -333 31 -417 2
-27 6 -66 8 -85 7 -73 16 -124 45 -265 11 -55 22 -111 24 -125 3 -14 10 -43
15 -65 6 -22 13 -51 16 -65 23 -126 106 -441 156 -596 28 -84 53 -164 55 -177
13 -64 19 -85 38 -122 78 -154 216 -252 370 -260 127 -7 228 31 317 118 99 96
145 245 117 377 -3 14 -35 112 -71 219 -36 107 -75 230 -86 275 -12 45 -25 95
-30 111 -10 32 -25 100 -34 150 -3 17 -10 45 -15 63 -5 17 -8 32 -5 32 3 0 0
8 -5 18 -5 9 -12 35 -15 57 -4 22 -8 47 -11 55 -10 36 -43 214 -50 271 -3 25
-7 55 -9 66 -3 11 -7 65 -11 119 -3 55 -8 117 -11 139 -2 22 -7 94 -9 160 -3
66 -8 188 -11 270 -8 191 -7 530 1 660 14 205 10 245 -33 335 -28 62 -141 180
-171 180 -10 0 -24 6 -30 14 -11 13 -84 33 -103 28 -5 -1 -8 1 -8 6 0 13 -94
8 -155 -9z"/>
<path d="M11265 10793 c-134 -22 -211 -59 -283 -137 -37 -40 -81 -111 -89
-143 -2 -7 -5 -21 -7 -30 -3 -10 -5 -18 -7 -18 -1 0 -3 -39 -4 -87 -1 -52 2
-88 7 -88 6 0 8 -6 5 -14 -3 -8 -3 -17 1 -20 3 -4 7 -12 8 -19 4 -31 100 -216
131 -254 124 -153 359 -194 527 -92 188 114 248 315 162 539 -50 127 -97 209
-147 255 -53 47 -152 94 -215 101 -27 3 -53 6 -59 8 -5 1 -19 1 -30 -1z"/>
<path d="M8713 10480 c-112 -24 -235 -116 -282 -213 -48 -99 -59 -213 -31
-317 7 -25 14 -55 16 -68 7 -37 199 -557 227 -612 28 -56 85 -119 143 -156
276 -176 636 21 636 348 0 69 -59 265 -168 550 -7 21 -27 79 -44 129 -40 122
-74 182 -135 236 -96 87 -241 128 -362 103z"/>
<path d="M11810 9704 c-207 -62 -338 -289 -285 -491 16 -60 66 -168 97 -210
150 -204 538 -622 718 -774 35 -30 75 -65 90 -78 85 -78 176 -158 250 -217 47
-38 94 -77 105 -87 38 -36 346 -264 465 -344 452 -307 855 -539 1115 -643 39
-16 116 -51 173 -79 57 -28 131 -63 165 -77 34 -15 107 -48 162 -74 113 -54
170 -69 247 -64 119 9 194 42 272 120 107 107 146 256 106 400 -45 163 -134
238 -439 369 -42 17 -123 55 -181 82 -117 56 -148 70 -235 106 -48 20 -232
114 -318 162 -267 150 -779 496 -993 671 -55 45 -128 104 -161 131 -33 26
-104 89 -159 139 -54 51 -115 104 -134 119 -19 15 -113 107 -209 204 -167 168
-333 364 -376 442 -42 78 -113 139 -205 179 -66 28 -199 35 -270 14z"/>
<path d="M6636 9103 c-1 -2 -29 -10 -60 -18 -132 -35 -235 -131 -284 -268 -50
-141 10 -377 125 -491 152 -149 391 -157 562 -19 25 21 50 44 55 51 4 8 17 23
27 33 11 11 20 22 21 27 6 30 12 42 19 42 5 0 9 9 9 19 0 11 5 23 10 26 8 5 7
12 -2 23 -7 9 -8 13 -2 9 17 -10 28 71 12 91 -9 10 -9 13 -1 9 6 -4 14 -3 17
2 3 5 -1 12 -9 15 -13 4 -14 10 -5 26 12 23 4 44 -13 34 -7 -4 -9 -4 -5 1 4 4
3 14 -3 21 -9 11 -7 15 6 20 9 4 13 10 8 13 -13 9 -33 49 -33 65 0 8 -3 16 -7
18 -5 2 -27 29 -50 60 -98 131 -186 179 -356 192 -20 1 -39 1 -41 -1z m461
-325 c-3 -8 -6 -5 -6 6 -1 11 2 17 5 13 3 -3 4 -12 1 -19z"/>
<path d="M3759 9009 c-73 -16 -148 -57 -201 -111 -67 -68 -69 -71 -97 -137
-34 -80 -38 -184 -11 -291 11 -47 23 -93 25 -103 27 -117 176 -577 225 -692 5
-11 38 -92 73 -180 63 -156 135 -323 213 -495 47 -104 358 -726 415 -830 182
-336 236 -430 392 -695 205 -348 664 -1064 688 -1073 5 -2 9 -8 9 -13 0 -5 62
-96 138 -202 76 -105 149 -208 162 -227 14 -19 27 -37 30 -40 3 -3 39 -50 80
-105 41 -55 103 -136 138 -180 253 -319 281 -349 379 -396 58 -28 77 -32 152
-32 97 -1 120 3 187 32 150 67 247 225 239 392 -6 127 -25 164 -188 367 -140
174 -366 469 -427 558 -8 12 -72 102 -141 200 -251 356 -603 905 -762 1186
-14 24 -48 84 -77 133 -55 94 -76 131 -130 230 -18 33 -54 98 -80 145 -141
254 -345 662 -467 930 -13 30 -35 78 -48 105 -95 206 -229 546 -307 780 -53
162 -65 200 -109 374 -36 140 -58 186 -122 251 -97 100 -249 147 -378 119z"/>
<path d="M9430 8889 c-94 -14 -167 -50 -234 -116 -135 -133 -161 -335 -65
-510 76 -138 93 -170 109 -193 10 -14 64 -104 120 -200 57 -96 139 -229 183
-295 109 -163 419 -578 534 -714 152 -180 435 -466 643 -651 145 -129 184
-165 195 -176 10 -12 230 -195 299 -249 39 -30 61 -49 106 -88 14 -12 52 -44
85 -71 33 -28 62 -52 65 -56 3 -3 23 -18 45 -35 22 -16 42 -32 45 -35 7 -8
191 -149 270 -207 36 -26 67 -50 70 -53 39 -42 387 -270 411 -270 5 0 9 -4 9
-10 0 -5 4 -10 9 -10 5 0 66 -36 136 -80 110 -70 185 -116 255 -155 10 -6 24
-16 31 -22 37 -28 136 -55 209 -55 325 1 525 360 351 631 -47 73 -84 102 -286
226 -104 65 -212 132 -240 150 -27 18 -72 45 -100 61 -98 55 -437 299 -582
419 -10 8 -58 47 -108 86 -49 40 -128 105 -175 144 -47 39 -150 126 -230 192
-80 67 -158 134 -175 150 -16 15 -68 62 -115 103 -132 117 -204 186 -329 314
-240 246 -275 287 -536 635 -172 229 -317 451 -401 611 -15 30 -40 73 -54 95
-15 22 -30 48 -33 58 -17 46 -134 222 -175 263 -88 88 -218 131 -342 113z"/>
<path d="M7115 8740 c3 -5 8 -10 11 -10 2 0 4 5 4 10 0 6 -5 10 -11 10 -5 0
-7 -4 -4 -10z"/>
<path d="M745 8671 c-176 -49 -298 -209 -299 -391 0 -74 11 -131 76 -395 17
-66 31 -124 32 -130 1 -5 5 -19 8 -30 4 -11 21 -67 39 -125 18 -58 33 -114 35
-125 4 -37 36 -118 61 -158 62 -99 184 -177 303 -195 36 -5 69 -8 75 -6 5 1
30 5 54 8 114 15 249 115 299 224 55 118 56 215 6 374 -15 46 -27 88 -29 93
-1 6 -5 17 -8 25 -5 14 -27 91 -61 215 -11 40 -46 194 -61 265 -20 101 -58
175 -123 242 -46 47 -132 99 -187 113 -60 14 -160 13 -220 -4z"/>
<path d="M8060 8608 c-127 -48 -216 -139 -259 -264 -17 -49 -20 -77 -16 -164
2 -58 11 -125 18 -150 21 -66 312 -646 392 -779 73 -124 121 -195 349 -521
155 -222 234 -328 288 -389 209 -235 256 -273 372 -297 94 -19 177 -10 260 30
192 93 280 290 221 494 -21 72 -51 117 -149 226 -107 119 -157 183 -312 406
-70 102 -131 187 -134 190 -13 11 -164 246 -210 327 -66 115 -271 531 -277
562 -9 51 -42 131 -71 174 -54 78 -129 130 -237 165 -55 17 -175 12 -235 -10z"/>
<path d="M16265 8451 c-101 -36 -165 -84 -218 -163 -139 -211 -64 -493 160
-600 129 -61 264 -57 387 12 116 66 206 213 206 336 0 68 -1 78 -17 134 -34
126 -125 225 -251 274 -74 29 -196 32 -267 7z"/>
<path d="M7005 8046 c-182 -43 -312 -208 -320 -406 -2 -44 32 -157 63 -212 16
-29 65 -134 108 -232 67 -155 103 -228 193 -391 9 -16 24 -41 32 -55 9 -14 56
-92 104 -173 87 -147 333 -507 469 -685 39 -52 91 -122 115 -155 57 -79 223
-309 233 -322 5 -5 28 -37 53 -70 24 -33 48 -64 52 -70 5 -5 29 -37 55 -70 25
-33 95 -117 155 -186 59 -69 158 -184 218 -255 61 -71 126 -144 145 -162 166
-159 436 -147 592 26 129 143 137 364 20 521 -41 54 -79 99 -255 301 -194 221
-360 433 -532 680 -33 47 -107 148 -165 225 -59 77 -130 174 -158 215 -28 41
-72 104 -98 140 -77 109 -169 250 -223 345 -29 50 -56 97 -61 105 -75 123
-115 199 -172 335 -17 39 -36 84 -43 100 -132 293 -179 357 -312 421 -81 39
-180 50 -268 30z"/>
<path d="M5730 7735 c-117 -31 -217 -112 -269 -218 -67 -135 -63 -229 16 -417
44 -103 271 -554 363 -720 89 -159 103 -185 127 -222 12 -21 23 -39 23 -42 0
-20 160 -267 193 -298 163 -154 414 -150 573 9 76 76 116 165 119 265 5 138 6
134 -199 491 -143 250 -385 716 -455 877 -28 65 -57 113 -89 147 -47 51 -132
110 -171 118 -12 3 -31 8 -43 11 -46 11 -144 11 -188 -1z"/>
<path d="M12139 7514 c-169 -32 -294 -152 -332 -321 -42 -183 41 -349 257
-513 50 -38 103 -79 118 -92 38 -33 57 -49 108 -88 25 -19 47 -38 48 -42 2 -5
8 -8 12 -8 7 0 285 -194 325 -227 27 -22 203 -133 211 -133 2 0 69 -37 147
-82 170 -97 408 -215 457 -224 146 -30 285 10 385 110 123 123 158 303 87 458
-49 109 -103 157 -266 239 -228 115 -510 282 -666 394 -80 58 -154 111 -164
118 -11 6 -64 48 -119 92 -55 44 -122 97 -149 118 -27 22 -72 61 -100 88 -61
59 -158 108 -230 115 -29 3 -55 7 -58 8 -3 2 -35 -3 -71 -10z"/>
<path d="M9987 6029 c-193 -43 -332 -229 -321 -428 9 -147 66 -234 313 -481
102 -102 254 -242 336 -310 83 -69 152 -127 155 -130 22 -22 178 -142 285
-217 71 -50 135 -96 140 -101 6 -5 24 -17 40 -28 17 -10 38 -26 48 -35 24 -22
475 -294 557 -336 195 -100 451 -14 545 184 89 187 39 397 -125 517 -32 24
-148 96 -257 161 -241 144 -544 359 -787 559 -168 139 -446 406 -525 505 -71
89 -177 141 -296 145 -38 2 -87 -1 -108 -5z"/>
<path d="M3555 5665 c-82 -19 -146 -56 -206 -115 -91 -90 -130 -191 -124 -316
3 -68 33 -163 60 -194 7 -8 34 -55 60 -105 54 -101 135 -234 247 -405 41 -63
99 -153 128 -200 29 -46 99 -148 155 -225 56 -78 119 -166 140 -196 49 -71
139 -163 195 -199 265 -171 614 1 637 314 11 143 -33 233 -244 501 -23 29
-124 167 -154 210 -20 28 -68 106 -108 175 -117 200 -263 444 -276 460 -7 8
-26 40 -43 71 -29 55 -57 93 -97 131 -24 23 -119 79 -143 83 -9 2 -17 4 -17 5
0 14 -158 18 -210 5z"/>
<path d="M7024 5441 c-84 -24 -175 -90 -224 -164 -93 -138 -97 -283 -15 -447
88 -175 216 -262 385 -262 220 0 392 161 414 385 9 105 -58 283 -139 369 -111
116 -270 161 -421 119z"/>
<path d="M1057 5374 c-1 -1 -24 -5 -50 -8 -122 -17 -272 -126 -327 -239 -76
-157 -59 -295 56 -464 129 -191 227 -273 359 -301 30 -7 146 -5 180 2 127 28
260 149 296 268 38 126 27 230 -39 363 -42 86 -119 208 -155 248 -48 52 -139
104 -205 118 -54 11 -110 17 -115 13z"/>
<path d="M9657 4594 c-129 -24 -240 -110 -300 -234 -29 -60 -32 -73 -32 -170
l0 -105 48 -98 c40 -83 62 -112 135 -186 48 -48 116 -112 152 -141 36 -30 67
-57 70 -60 3 -3 59 -52 125 -110 66 -57 125 -110 130 -116 6 -6 37 -33 70 -60
33 -27 65 -53 71 -59 12 -11 32 -27 189 -150 121 -95 139 -109 230 -174 39
-27 75 -54 80 -59 101 -86 835 -552 870 -552 4 0 19 -8 33 -18 15 -11 72 -43
127 -72 96 -51 153 -81 277 -148 184 -99 347 -90 496 27 46 37 120 140 127
179 2 9 4 17 5 17 6 0 14 72 13 130 -1 88 -5 105 -45 183 -38 76 -109 144
-199 191 -88 45 -231 122 -394 211 -319 175 -675 404 -870 559 -38 31 -72 58
-75 61 -3 3 -30 25 -60 50 -30 25 -60 49 -66 55 -6 5 -26 21 -44 35 -18 14
-38 30 -44 35 -9 9 -95 76 -156 122 -77 58 -270 216 -315 258 -22 21 -62 56
-90 79 -88 72 -125 109 -125 123 0 7 -28 41 -62 76 -105 106 -230 147 -371
121z"/>
<path d="M7790 4534 c-196 -41 -334 -212 -333 -414 2 -131 74 -258 269 -470
17 -19 60 -66 95 -105 143 -157 604 -607 737 -720 20 -16 46 -39 58 -50 12
-11 43 -38 70 -60 51 -42 238 -203 268 -230 132 -121 281 -160 438 -115 50 14
151 83 188 128 67 81 98 175 94 281 -3 80 -22 142 -61 204 -35 57 -54 74 -303
287 -386 329 -745 677 -1010 980 -12 14 -34 41 -49 60 -87 115 -132 157 -206
192 -79 37 -173 48 -255 32z"/>
<path d="M12900 3978 c-107 -28 -218 -116 -265 -208 -72 -143 -62 -308 27
-431 62 -87 146 -142 324 -214 98 -40 131 -48 192 -51 321 -12 528 319 380
609 -29 57 -117 140 -179 169 -188 89 -237 112 -264 121 -41 13 -172 17 -215
5z"/>
<path d="M6240 2839 c-127 -20 -262 -118 -317 -230 -43 -86 -47 -104 -47 -225
-1 -96 0 -103 36 -175 37 -73 60 -102 202 -249 72 -75 151 -124 220 -139 17
-3 74 -6 126 -5 83 0 102 4 155 29 33 16 65 33 70 37 81 62 130 123 159 198
24 59 27 74 30 143 4 75 -8 137 -39 205 -24 52 -163 229 -235 299 -88 85 -236
131 -360 112z"/>
<path d="M7785 2423 c-213 -40 -356 -200 -358 -398 -1 -158 44 -240 208 -384
28 -24 106 -97 175 -161 69 -65 148 -137 175 -160 28 -24 77 -67 111 -96 126
-112 509 -408 609 -472 104 -66 216 -103 313 -103 311 1 504 326 361 608 -30
58 -72 100 -185 184 -320 236 -462 344 -571 431 -136 109 -130 104 -303 268
-190 180 -271 240 -355 266 -51 15 -144 24 -180 17z"/>
</g>
</svg>
